<svg width="800" height="600" viewBox="0 0 800 600" fill="none" xmlns="http://www.w3.org/2000/svg">
  <defs>
    <linearGradient id="bg1" x1="0%" y1="0%" x2="100%" y2="100%">
      <stop offset="0%" style="stop-color:#8B4513;stop-opacity:1" />
      <stop offset="100%" style="stop-color:#654321;stop-opacity:1" />
    </linearGradient>
  </defs>
  <rect width="800" height="600" fill="url(#bg1)"/>
  
  <!-- Chocolates scattered -->
  <circle cx="150" cy="100" r="25" fill="#3d1f0f" opacity="0.8"/>
  <rect x="300" y="150" width="30" height="30" rx="5" fill="#6b3520" opacity="0.7" transform="rotate(45 315 165)"/>
  <circle cx="600" cy="120" r="20" fill="#4a2c17" opacity="0.9"/>
  <rect x="500" y="80" width="25" height="25" rx="3" fill="#5a2f1a" opacity="0.6" transform="rotate(30 512.5 92.5)"/>
  
  <circle cx="100" cy="300" r="30" fill="#4a2c17" opacity="0.7"/>
  <rect x="200" y="280" width="35" height="35" rx="7" fill="#3d1f0f" opacity="0.8" transform="rotate(60 217.5 297.5)"/>
  <circle cx="450" cy="250" r="28" fill="#6b3520" opacity="0.9"/>
  <rect x="650" y="220" width="32" height="32" rx="6" fill="#5a2f1a" opacity="0.7" transform="rotate(75 666 236)"/>
  
  <circle cx="180" cy="450" r="22" fill="#5a2f1a" opacity="0.8"/>
  <rect x="350" y="480" width="28" height="28" rx="4" fill="#4a2c17" opacity="0.6" transform="rotate(15 364 494)"/>
  <circle cx="550" cy="420" r="26" fill="#3d1f0f" opacity="0.9"/>
  <rect x="700" y="400" width="24" height="24" rx="3" fill="#6b3520" opacity="0.7" transform="rotate(90 712 412)"/>
  
  <!-- Central text area -->
  <rect x="200" y="220" width="400" height="160" fill="rgba(255,255,255,0.95)" rx="15"/>
  <text x="400" y="260" font-family="Georgia, serif" font-size="24" font-weight="bold" text-anchor="middle" fill="#3d1f0f">
    Praline al Cioccolato
  </text>
  <text x="400" y="290" font-family="Arial, sans-serif" font-size="16" text-anchor="middle" fill="#654321">
    Collezione "Emozioni"
  </text>
  <text x="400" y="320" font-family="Arial, sans-serif" font-size="14" text-anchor="middle" fill="#8B4513">
    Creazioni raffinate che uniscono
  </text>
  <text x="400" y="340" font-family="Arial, sans-serif" font-size="14" text-anchor="middle" fill="#8B4513">
    tradizione e innovazione
  </text>
</svg>
